<?xml version="1.0" encoding="utf-8"?>
<!-- Generator: Adobe Illustrator 25.4.1, SVG Export Plug-In . SVG Version: 6.00 Build 0)  -->
<svg version="1.1" id="Layer_1" xmlns="http://www.w3.org/2000/svg" xmlns:xlink="http://www.w3.org/1999/xlink" x="0px" y="0px"
	 viewBox="0 0 250 250" style="enable-background:new 0 0 250 250;" xml:space="preserve">
<style type="text/css">
	.st0{fill:none;stroke:#FFD400;stroke-width:36;stroke-miterlimit:10;}
	.st1{fill:none;stroke:#605EBA;stroke-width:36;stroke-miterlimit:10;}
	.st2{fill:none;stroke:#54AB94;stroke-width:36;stroke-miterlimit:10;}
</style>
<path class="st0" d="M-180.89,150.17c-33.79,0-61.19-27.39-61.19-61.19s27.39-61.19,61.19-61.19"/>
<path class="st0" d="M-119.71,88.98c0-33.79-27.39-61.19-61.19-61.19"/>
<path class="st1" d="M82.06,145.19c-33.79,0-61.19-27.39-61.19-61.19s27.39-61.19,61.19-61.19"/>
<path class="st1" d="M162.14,105.15c33.7,0,61.02,27.32,61.02,61.02s-27.32,61.02-61.02,61.02s-61.02-27.32-61.02-61.02"/>
<path class="st2" d="M161.14,144.86c-33.7,0-61.02-27.32-61.02-61.02s27.32-61.02,61.02-61.02s61.02,27.32,61.02,61.02"/>
</svg>
