<?xml version="1.0" encoding="utf-8"?>
<!-- Generator: Adobe Illustrator 27.2.0, SVG Export Plug-In . SVG Version: 6.00 Build 0)  -->
<svg version="1.1" xmlns="http://www.w3.org/2000/svg" xmlns:xlink="http://www.w3.org/1999/xlink" x="0px" y="0px"
	 viewBox="0 0 2020 2020" style="enable-background:new 0 0 2020 2020;" xml:space="preserve">
<style type="text/css">
	.st0{fill:none;stroke:#A5A5E8;stroke-width:50;stroke-miterlimit:10;}
	.st1{display:none;}
	.st2{display:inline;fill:none;stroke:#BFBFEF;stroke-width:6;stroke-miterlimit:10;}
	.st3{display:inline;}
	.st4{fill:none;stroke:#A5A5E8;stroke-width:6;stroke-miterlimit:10;}
</style>
<g id="Layer_1">
	<g>
		<path class="st0" d="M1352.7238,2010.3345c-363.585,1.4915-660.5919-294.9363-662.0742-660.7919l325.5286-1.3353
			c0.7504,185.235,151.1311,335.3245,335.2185,334.5693s333.239-152.0734,332.4886-337.3082
			c-0.7505-185.235-151.1233-335.3245-335.2107-334.5694l-1.327-327.5579c363.5812-1.4914,660.5841,294.9403,662.0663,660.792
			C2010.8961,1709.9886,1716.3049,2008.843,1352.7238,2010.3345z"/>
		<g>
			<path class="st0" d="M760.0253,360.8405c-50.2288,94.0666-78.5683,201.6231-78.1061,315.7026
				c1.4822,365.8517,298.4891,662.2793,662.0742,660.7878l-1.327-327.5579c-184.0754,0.7551-334.4481-149.312-335.2174-334.5298
				l-4.8173-0.0157C1002.0152,523.0942,900.9797,398.7516,760.0253,360.8405z"/>
			<path class="st0" d="M1806.9604,208.1573C1681.2739,79.8748,1514.9479,9.6223,1338.6172,10.3456
				c-124.7455,0.5117-241.3613,36.0411-340.6929,97.2579c48.2748,27.4751,93.3011,61.1049,133.8955,100.7042
				c43.7889,42.7141,83.3412,90.8821,116.3595,142.9956c29.1595-8.5376,59.9199-13.2692,91.7649-13.3998
				c180.9641-0.7423,334.488,156.2198,335.2438,342.7543l325.5286-1.3353C1999.9994,502.2845,1931.1866,334.9544,1806.9604,208.1573
				z"/>
			<path class="st0" d="M997.9243,107.6035c-99.6265-56.701-213.2894-86.7964-331.8012-86.3102
				C302.5381,22.7847,7.9429,321.6391,9.425,687.4907c0.7215,178.1016,76.1677,344.7367,212.445,469.2131
				c128.3001,117.1918,301.0736,183.9951,474.0107,183.2856l-1.3271-327.5579c-194.2045,0.7966-358.8802-148.6184-359.6-326.2762
				c-0.7504-185.2349,148.4052-336.5491,332.4966-337.3042c32.2394-0.1323,63.2507,4.102,92.5751,11.9893
				C815.6118,256.739,898.0185,169.1745,997.9243,107.6035z"/>
			<path class="st0" d="M1007.4477,675.2078c0.0001,0.012,0.0011,0.0235,0.0012,0.0355l342.0049,1.1007
				c-0.4688-115.7183-39.364-227.3275-101.2744-325.0406C1108.7762,392.1203,1006.8271,522.0164,1007.4477,675.2078z"/>
		</g>
	</g>
</g>
<g id="Layer_2" class="st1">
	<path class="st2" d="M835.5159,1102.6556c-35.4905,1.8052-65.0156-26.4745-65.1588-61.614l19.4548-0.0793
		c5.6946-0.0232,10.8337,3.6084,12.5112,9.0504c4.17,13.5288,17.2618,23.1699,32.3502,22.0541
		c15.4457-1.1425,27.9099-13.7087,28.9268-29.1632c1.2048-18.3091-13.3867-33.5532-31.4229-33.4797l-0.0793-19.4418
		c-0.0262-6.4439,5.8751-11.222,12.1976-9.9768c29.2686,5.7642,51.236,32.2198,49.8993,63.4934
		C892.8393,1075.2094,867.2145,1101.0433,835.5159,1102.6556z"/>
	<g class="st3">
		<path class="st4" d="M776.8747,948.7307c-4.7189,8.7826-7.3813,18.8247-7.3379,29.4758
			c0.1227,30.1074,21.8149,55.179,50.3481,60.6066c6.152,1.1703,11.8331-3.6212,11.8076-9.8835l-0.08-19.6108
			c-17.2935,0.0705-31.4207-13.9407-31.4929-31.2336l-0.4526-0.0015C799.6091,963.8796,790.1171,952.2703,776.8747,948.7307z"/>
		<path class="st4" d="M875.232,934.4753c-11.808-11.9772-27.434-18.5364-43.9998-18.4689
			c-5.1789,0.0211-10.2086,0.6807-15.015,1.9036c-7.4538,1.8964-9.9424,11.233-4.4132,16.5793h0.0001
			c2.7031,2.6204,5.2343,5.4606,7.5325,8.4808c2.0936,2.7512,5.4559,4.1502,8.8941,3.7891c1.028-0.108,2.0708-0.1657,3.1263-0.17
			c14.4711-0.059,27.0745,10.5499,30.549,24.449c1.1109,4.444,5.1396,7.5354,9.7202,7.5167l10.8601-0.0443
			c6.231-0.0254,10.9846-5.6935,9.7994-11.8107C889.9448,954.6179,884.0868,943.4573,875.232,934.4753z"/>
		<path class="st4" d="M781.1542,941.8774c7.4061-10.3035-0.0784-24.836-12.7675-24.8493
			c-0.1113-0.0001-0.2225,0.0001-0.3339,0.0005c-34.158,0.1393-61.8346,28.0421-61.6953,62.2001
			c0.0677,16.6286,7.1558,32.1866,19.9587,43.8084c12.0535,10.9417,28.2852,17.1789,44.5322,17.1126l-0.0457-11.2168
			c-0.0391-9.5989-5.5673-18.4791-14.3703-22.3063c-11.3602-4.9388-19.4434-15.543-19.4922-27.5226
			c-0.0705-17.2946,13.9423-31.4222,31.2373-31.4927c3.0288-0.0123,5.9423,0.383,8.6972,1.1194
			C778.1542,946.3492,779.585,944.0605,781.1542,941.8774z"/>
	</g>
</g>
</svg>
